<mxfile host="app.diagrams.net" agent="Mozilla/5.0 (Windows NT 10.0; Win64; x64) AppleWebKit/537.36 (KHTML, like Gecko) Chrome/127.0.0.0 Safari/537.36" version="24.7.6">
  <diagram name="第 1 页" id="mYXSuFcs4vH7eiCg4hNK">
    <mxGraphModel dx="1290" dy="530" grid="1" gridSize="10" guides="1" tooltips="1" connect="1" arrows="1" fold="1" page="1" pageScale="1" pageWidth="827" pageHeight="1169" math="0" shadow="0">
      <root>
        <mxCell id="0" />
        <mxCell id="1" parent="0" />
        <mxCell id="2fjG4QaXRf-Lk_SPFCAc-2" value="Smart Life APP" style="swimlane;whiteSpace=wrap;html=1;" parent="1" vertex="1">
          <mxGeometry x="214" y="120" width="106" height="200" as="geometry">
            <mxRectangle x="214" y="120" width="120" height="30" as="alternateBounds" />
          </mxGeometry>
        </mxCell>
        <mxCell id="2fjG4QaXRf-Lk_SPFCAc-3" value="Scan &amp;amp; add&lt;div&gt;&lt;span style=&quot;background-color: initial;&quot;&gt;Tuya Device&lt;/span&gt;&lt;/div&gt;" style="ellipse;whiteSpace=wrap;html=1;" parent="2fjG4QaXRf-Lk_SPFCAc-2" vertex="1">
          <mxGeometry x="12" y="45" width="82" height="60" as="geometry" />
        </mxCell>
        <mxCell id="2fjG4QaXRf-Lk_SPFCAc-4" value="Home Assistant" style="swimlane;whiteSpace=wrap;html=1;" parent="1" vertex="1">
          <mxGeometry x="420" y="120" width="300" height="200" as="geometry" />
        </mxCell>
        <mxCell id="2fjG4QaXRf-Lk_SPFCAc-5" value="Tuya Component" style="ellipse;whiteSpace=wrap;html=1;" parent="2fjG4QaXRf-Lk_SPFCAc-4" vertex="1">
          <mxGeometry x="18" y="50" width="70" height="50" as="geometry" />
        </mxCell>
        <mxCell id="2fjG4QaXRf-Lk_SPFCAc-6" value="Sync Devices&lt;div&gt;on the APP&lt;/div&gt;" style="ellipse;whiteSpace=wrap;html=1;" parent="2fjG4QaXRf-Lk_SPFCAc-4" vertex="1">
          <mxGeometry x="170" y="45" width="80" height="60" as="geometry" />
        </mxCell>
        <mxCell id="2fjG4QaXRf-Lk_SPFCAc-15" value="" style="endArrow=open;endSize=12;dashed=1;html=1;rounded=0;entryX=0;entryY=0.5;entryDx=0;entryDy=0;" parent="2fjG4QaXRf-Lk_SPFCAc-4" source="2fjG4QaXRf-Lk_SPFCAc-5" target="2fjG4QaXRf-Lk_SPFCAc-6" edge="1">
          <mxGeometry width="160" relative="1" as="geometry">
            <mxPoint x="28" y="85" as="sourcePoint" />
            <mxPoint x="-108" y="85" as="targetPoint" />
          </mxGeometry>
        </mxCell>
        <mxCell id="2fjG4QaXRf-Lk_SPFCAc-16" value="&amp;lt;&amp;lt;include&amp;gt;&amp;gt;" style="text;html=1;align=center;verticalAlign=middle;resizable=0;points=[];autosize=1;strokeColor=none;fillColor=none;" parent="2fjG4QaXRf-Lk_SPFCAc-4" vertex="1">
          <mxGeometry x="80" y="50" width="90" height="30" as="geometry" />
        </mxCell>
        <mxCell id="2fjG4QaXRf-Lk_SPFCAc-36" value="Manage&amp;nbsp;&lt;div&gt;&lt;span style=&quot;background-color: initial;&quot;&gt;Device&lt;/span&gt;&lt;/div&gt;" style="ellipse;whiteSpace=wrap;html=1;" parent="2fjG4QaXRf-Lk_SPFCAc-4" vertex="1">
          <mxGeometry x="18" y="130" width="70" height="50" as="geometry" />
        </mxCell>
        <mxCell id="2fjG4QaXRf-Lk_SPFCAc-10" style="edgeStyle=orthogonalEdgeStyle;rounded=0;orthogonalLoop=1;jettySize=auto;html=1;" parent="1" target="2fjG4QaXRf-Lk_SPFCAc-3" edge="1">
          <mxGeometry relative="1" as="geometry">
            <mxPoint x="130" y="195" as="sourcePoint" />
          </mxGeometry>
        </mxCell>
        <mxCell id="2fjG4QaXRf-Lk_SPFCAc-9" value="Client" style="shape=umlActor;verticalLabelPosition=bottom;verticalAlign=top;html=1;outlineConnect=0;" parent="1" vertex="1">
          <mxGeometry x="90" y="165" width="30" height="60" as="geometry" />
        </mxCell>
        <mxCell id="2fjG4QaXRf-Lk_SPFCAc-13" value="" style="endArrow=open;endSize=12;dashed=1;html=1;rounded=0;entryX=1;entryY=0.5;entryDx=0;entryDy=0;exitX=0;exitY=0.5;exitDx=0;exitDy=0;" parent="1" source="2fjG4QaXRf-Lk_SPFCAc-5" target="2fjG4QaXRf-Lk_SPFCAc-3" edge="1">
          <mxGeometry width="160" relative="1" as="geometry">
            <mxPoint x="330" y="280" as="sourcePoint" />
            <mxPoint x="490" y="280" as="targetPoint" />
          </mxGeometry>
        </mxCell>
        <mxCell id="2fjG4QaXRf-Lk_SPFCAc-14" value="&amp;lt;&amp;lt;extend&amp;gt;&amp;gt;" style="text;html=1;align=center;verticalAlign=middle;resizable=0;points=[];autosize=1;strokeColor=none;fillColor=none;" parent="1" vertex="1">
          <mxGeometry x="320" y="165" width="90" height="30" as="geometry" />
        </mxCell>
        <mxCell id="2fjG4QaXRf-Lk_SPFCAc-17" value="Our APP" style="swimlane;whiteSpace=wrap;html=1;" parent="1" vertex="1">
          <mxGeometry x="214" y="450" width="106" height="200" as="geometry">
            <mxRectangle x="214" y="120" width="120" height="30" as="alternateBounds" />
          </mxGeometry>
        </mxCell>
        <mxCell id="2fjG4QaXRf-Lk_SPFCAc-18" value="Scan &amp;amp; add&lt;div&gt;&amp;nbsp;Various vendor&amp;nbsp;&lt;/div&gt;&lt;div&gt;&lt;span style=&quot;background-color: initial;&quot;&gt;Device&lt;/span&gt;&lt;/div&gt;" style="ellipse;whiteSpace=wrap;html=1;" parent="2fjG4QaXRf-Lk_SPFCAc-17" vertex="1">
          <mxGeometry x="9" y="45" width="91" height="60" as="geometry" />
        </mxCell>
        <mxCell id="2fjG4QaXRf-Lk_SPFCAc-35" value="Manage&amp;nbsp;&lt;div&gt;&lt;span style=&quot;background-color: initial;&quot;&gt;Device&lt;/span&gt;&lt;/div&gt;" style="ellipse;whiteSpace=wrap;html=1;" parent="2fjG4QaXRf-Lk_SPFCAc-17" vertex="1">
          <mxGeometry x="18" y="125" width="70" height="50" as="geometry" />
        </mxCell>
        <mxCell id="2fjG4QaXRf-Lk_SPFCAc-19" value="Home Assistant" style="swimlane;whiteSpace=wrap;html=1;" parent="1" vertex="1">
          <mxGeometry x="681" y="450" width="300" height="300" as="geometry" />
        </mxCell>
        <mxCell id="2fjG4QaXRf-Lk_SPFCAc-20" value="Tuya Component" style="ellipse;whiteSpace=wrap;html=1;" parent="2fjG4QaXRf-Lk_SPFCAc-19" vertex="1">
          <mxGeometry x="18" y="50" width="70" height="50" as="geometry" />
        </mxCell>
        <mxCell id="2fjG4QaXRf-Lk_SPFCAc-21" value="Sync Devices&lt;div&gt;on the APP&lt;/div&gt;" style="ellipse;whiteSpace=wrap;html=1;" parent="2fjG4QaXRf-Lk_SPFCAc-19" vertex="1">
          <mxGeometry x="170" y="45" width="80" height="60" as="geometry" />
        </mxCell>
        <mxCell id="2fjG4QaXRf-Lk_SPFCAc-22" value="" style="endArrow=open;endSize=12;dashed=1;html=1;rounded=0;entryX=0;entryY=0.5;entryDx=0;entryDy=0;" parent="2fjG4QaXRf-Lk_SPFCAc-19" source="2fjG4QaXRf-Lk_SPFCAc-20" target="2fjG4QaXRf-Lk_SPFCAc-21" edge="1">
          <mxGeometry width="160" relative="1" as="geometry">
            <mxPoint x="28" y="85" as="sourcePoint" />
            <mxPoint x="-108" y="85" as="targetPoint" />
          </mxGeometry>
        </mxCell>
        <mxCell id="2fjG4QaXRf-Lk_SPFCAc-23" value="&amp;lt;&amp;lt;include&amp;gt;&amp;gt;" style="text;html=1;align=center;verticalAlign=middle;resizable=0;points=[];autosize=1;strokeColor=none;fillColor=none;" parent="2fjG4QaXRf-Lk_SPFCAc-19" vertex="1">
          <mxGeometry x="80" y="50" width="90" height="30" as="geometry" />
        </mxCell>
        <mxCell id="2fjG4QaXRf-Lk_SPFCAc-24" style="edgeStyle=orthogonalEdgeStyle;rounded=0;orthogonalLoop=1;jettySize=auto;html=1;" parent="1" target="2fjG4QaXRf-Lk_SPFCAc-18" edge="1">
          <mxGeometry relative="1" as="geometry">
            <mxPoint x="139" y="525" as="sourcePoint" />
          </mxGeometry>
        </mxCell>
        <mxCell id="2fjG4QaXRf-Lk_SPFCAc-25" value="Client" style="shape=umlActor;verticalLabelPosition=bottom;verticalAlign=top;html=1;outlineConnect=0;" parent="1" vertex="1">
          <mxGeometry x="90" y="495" width="30" height="60" as="geometry" />
        </mxCell>
        <mxCell id="2fjG4QaXRf-Lk_SPFCAc-26" value="" style="endArrow=open;endSize=12;dashed=1;html=1;rounded=0;exitX=0;exitY=0.5;exitDx=0;exitDy=0;entryX=0.93;entryY=0.73;entryDx=0;entryDy=0;entryPerimeter=0;" parent="1" source="2fjG4QaXRf-Lk_SPFCAc-49" target="2fjG4QaXRf-Lk_SPFCAc-18" edge="1">
          <mxGeometry width="160" relative="1" as="geometry">
            <mxPoint x="301" y="575" as="sourcePoint" />
            <mxPoint x="381" y="565" as="targetPoint" />
            <Array as="points">
              <mxPoint x="380" y="585" />
            </Array>
          </mxGeometry>
        </mxCell>
        <mxCell id="2fjG4QaXRf-Lk_SPFCAc-28" value="Our Backend API" style="swimlane;whiteSpace=wrap;html=1;" parent="1" vertex="1">
          <mxGeometry x="441" y="450" width="130" height="300" as="geometry">
            <mxRectangle x="214" y="120" width="120" height="30" as="alternateBounds" />
          </mxGeometry>
        </mxCell>
        <mxCell id="2fjG4QaXRf-Lk_SPFCAc-29" value="invoke&lt;div&gt;&amp;nbsp;tuya&amp;nbsp;&lt;span style=&quot;background-color: initial;&quot;&gt;Java&lt;/span&gt;&lt;div&gt;&lt;div&gt;src code&lt;/div&gt;&lt;/div&gt;&lt;/div&gt;" style="ellipse;whiteSpace=wrap;html=1;" parent="2fjG4QaXRf-Lk_SPFCAc-28" vertex="1">
          <mxGeometry x="30" y="50" width="70" height="50" as="geometry" />
        </mxCell>
        <mxCell id="2fjG4QaXRf-Lk_SPFCAc-37" style="edgeStyle=orthogonalEdgeStyle;rounded=0;orthogonalLoop=1;jettySize=auto;html=1;entryX=0;entryY=0.5;entryDx=0;entryDy=0;" parent="1" target="2fjG4QaXRf-Lk_SPFCAc-36" edge="1">
          <mxGeometry relative="1" as="geometry">
            <mxPoint x="130" y="220" as="sourcePoint" />
            <mxPoint x="242" y="205" as="targetPoint" />
            <Array as="points">
              <mxPoint x="130" y="275" />
            </Array>
          </mxGeometry>
        </mxCell>
        <mxCell id="2fjG4QaXRf-Lk_SPFCAc-38" style="edgeStyle=orthogonalEdgeStyle;rounded=0;orthogonalLoop=1;jettySize=auto;html=1;entryX=0;entryY=0.5;entryDx=0;entryDy=0;" parent="1" target="2fjG4QaXRf-Lk_SPFCAc-35" edge="1">
          <mxGeometry relative="1" as="geometry">
            <mxPoint x="140" y="545" as="sourcePoint" />
            <mxPoint x="242" y="535" as="targetPoint" />
          </mxGeometry>
        </mxCell>
        <mxCell id="2fjG4QaXRf-Lk_SPFCAc-42" value="" style="endArrow=open;endSize=12;dashed=1;html=1;rounded=0;exitX=0;exitY=0.5;exitDx=0;exitDy=0;" parent="1" source="2fjG4QaXRf-Lk_SPFCAc-20" target="2fjG4QaXRf-Lk_SPFCAc-29" edge="1">
          <mxGeometry width="160" relative="1" as="geometry">
            <mxPoint x="709" y="610" as="sourcePoint" />
            <mxPoint x="541" y="553" as="targetPoint" />
          </mxGeometry>
        </mxCell>
        <mxCell id="2fjG4QaXRf-Lk_SPFCAc-43" value="&amp;lt;&amp;lt;extend&amp;gt;&amp;gt;" style="text;html=1;align=center;verticalAlign=middle;resizable=0;points=[];autosize=1;strokeColor=none;fillColor=none;" parent="1" vertex="1">
          <mxGeometry x="590" y="495" width="90" height="30" as="geometry" />
        </mxCell>
        <mxCell id="2fjG4QaXRf-Lk_SPFCAc-44" value="&lt;font style=&quot;font-size: 18px;&quot;&gt;&lt;b&gt;Original Architecture&lt;/b&gt;&lt;/font&gt;" style="text;html=1;align=center;verticalAlign=middle;resizable=0;points=[];autosize=1;strokeColor=none;fillColor=none;" parent="1" vertex="1">
          <mxGeometry x="80" y="53" width="200" height="40" as="geometry" />
        </mxCell>
        <mxCell id="2fjG4QaXRf-Lk_SPFCAc-45" value="&lt;font style=&quot;font-size: 18px;&quot;&gt;&lt;b&gt;Our Architecture&lt;/b&gt;&lt;/font&gt;" style="text;html=1;align=center;verticalAlign=middle;resizable=0;points=[];autosize=1;strokeColor=none;fillColor=none;" parent="1" vertex="1">
          <mxGeometry x="80" y="380" width="170" height="40" as="geometry" />
        </mxCell>
        <mxCell id="2fjG4QaXRf-Lk_SPFCAc-46" value="Raspberry Pi" style="swimlane;whiteSpace=wrap;html=1;startSize=23;" parent="1" vertex="1">
          <mxGeometry x="350" y="405" width="670" height="360" as="geometry" />
        </mxCell>
        <mxCell id="2fjG4QaXRf-Lk_SPFCAc-47" value="invoke HA&lt;div&gt;API&lt;/div&gt;" style="ellipse;whiteSpace=wrap;html=1;" parent="2fjG4QaXRf-Lk_SPFCAc-46" vertex="1">
          <mxGeometry x="121" y="285" width="70" height="50" as="geometry" />
        </mxCell>
        <mxCell id="2fjG4QaXRf-Lk_SPFCAc-39" value="&amp;lt;&amp;lt;include&amp;gt;&amp;gt;" style="text;html=1;align=center;verticalAlign=middle;resizable=0;points=[];autosize=1;strokeColor=none;fillColor=none;" parent="2fjG4QaXRf-Lk_SPFCAc-46" vertex="1">
          <mxGeometry x="-2" y="285" width="90" height="30" as="geometry" />
        </mxCell>
        <mxCell id="2fjG4QaXRf-Lk_SPFCAc-31" value="&amp;lt;&amp;lt;include&amp;gt;&amp;gt;" style="text;html=1;align=center;verticalAlign=middle;resizable=0;points=[];autosize=1;strokeColor=none;fillColor=none;" parent="2fjG4QaXRf-Lk_SPFCAc-46" vertex="1">
          <mxGeometry x="240" y="285" width="90" height="30" as="geometry" />
        </mxCell>
        <mxCell id="2fjG4QaXRf-Lk_SPFCAc-41" value="return device metrics" style="ellipse;whiteSpace=wrap;html=1;" parent="2fjG4QaXRf-Lk_SPFCAc-46" vertex="1">
          <mxGeometry x="360" y="285" width="70" height="50" as="geometry" />
        </mxCell>
        <mxCell id="2fjG4QaXRf-Lk_SPFCAc-30" value="" style="endArrow=open;endSize=12;dashed=1;html=1;rounded=0;exitX=1;exitY=0.5;exitDx=0;exitDy=0;entryX=0;entryY=0.5;entryDx=0;entryDy=0;" parent="2fjG4QaXRf-Lk_SPFCAc-46" source="2fjG4QaXRf-Lk_SPFCAc-47" target="2fjG4QaXRf-Lk_SPFCAc-41" edge="1">
          <mxGeometry width="160" relative="1" as="geometry">
            <mxPoint x="178" y="170" as="sourcePoint" />
            <mxPoint x="300" y="315" as="targetPoint" />
            <Array as="points" />
          </mxGeometry>
        </mxCell>
        <mxCell id="2fjG4QaXRf-Lk_SPFCAc-49" value="invoke&lt;div&gt;&amp;nbsp;tapo-p100&lt;/div&gt;&lt;div&gt;src code&lt;/div&gt;" style="ellipse;whiteSpace=wrap;html=1;" parent="2fjG4QaXRf-Lk_SPFCAc-46" vertex="1">
          <mxGeometry x="121" y="155" width="70" height="50" as="geometry" />
        </mxCell>
        <mxCell id="2fjG4QaXRf-Lk_SPFCAc-50" value="invoke&lt;div style=&quot;--tw-border-spacing-x: 0; --tw-border-spacing-y: 0; --tw-translate-x: 0; --tw-translate-y: 0; --tw-rotate: 0; --tw-skew-x: 0; --tw-skew-y: 0; --tw-scale-x: 1; --tw-scale-y: 1; --tw-pan-x: ; --tw-pan-y: ; --tw-pinch-zoom: ; --tw-scroll-snap-strictness: proximity; --tw-ordinal: ; --tw-slashed-zero: ; --tw-numeric-figure: ; --tw-numeric-spacing: ; --tw-numeric-fraction: ; --tw-ring-inset: ; --tw-ring-offset-width: 0px; --tw-ring-offset-color: #fff; --tw-ring-color: rgb(59 130 246 / .5); --tw-ring-offset-shadow: 0 0 #0000; --tw-ring-shadow: 0 0 #0000; --tw-shadow: 0 0 #0000; --tw-shadow-colored: 0 0 #0000; --tw-blur: ; --tw-brightness: ; --tw-contrast: ; --tw-grayscale: ; --tw-hue-rotate: ; --tw-invert: ; --tw-saturate: ; --tw-sepia: ; --tw-drop-shadow: ; --tw-backdrop-blur: ; --tw-backdrop-brightness: ; --tw-backdrop-contrast: ; --tw-backdrop-grayscale: ; --tw-backdrop-hue-rotate: ; --tw-backdrop-invert: ; --tw-backdrop-opacity: ; --tw-backdrop-saturate: ; --tw-backdrop-sepia: ;&quot;&gt;google&amp;nbsp;&lt;span style=&quot;background-color: initial;&quot;&gt;matter&lt;/span&gt;&lt;/div&gt;&lt;div style=&quot;--tw-border-spacing-x: 0; --tw-border-spacing-y: 0; --tw-translate-x: 0; --tw-translate-y: 0; --tw-rotate: 0; --tw-skew-x: 0; --tw-skew-y: 0; --tw-scale-x: 1; --tw-scale-y: 1; --tw-pan-x: ; --tw-pan-y: ; --tw-pinch-zoom: ; --tw-scroll-snap-strictness: proximity; --tw-ordinal: ; --tw-slashed-zero: ; --tw-numeric-figure: ; --tw-numeric-spacing: ; --tw-numeric-fraction: ; --tw-ring-inset: ; --tw-ring-offset-width: 0px; --tw-ring-offset-color: #fff; --tw-ring-color: rgb(59 130 246 / .5); --tw-ring-offset-shadow: 0 0 #0000; --tw-ring-shadow: 0 0 #0000; --tw-shadow: 0 0 #0000; --tw-shadow-colored: 0 0 #0000; --tw-blur: ; --tw-brightness: ; --tw-contrast: ; --tw-grayscale: ; --tw-hue-rotate: ; --tw-invert: ; --tw-saturate: ; --tw-sepia: ; --tw-drop-shadow: ; --tw-backdrop-blur: ; --tw-backdrop-brightness: ; --tw-backdrop-contrast: ; --tw-backdrop-grayscale: ; --tw-backdrop-hue-rotate: ; --tw-backdrop-invert: ; --tw-backdrop-opacity: ; --tw-backdrop-saturate: ; --tw-backdrop-sepia: ;&quot;&gt;&lt;span style=&quot;--tw-border-spacing-x: 0; --tw-border-spacing-y: 0; --tw-translate-x: 0; --tw-translate-y: 0; --tw-rotate: 0; --tw-skew-x: 0; --tw-skew-y: 0; --tw-scale-x: 1; --tw-scale-y: 1; --tw-pan-x: ; --tw-pan-y: ; --tw-pinch-zoom: ; --tw-scroll-snap-strictness: proximity; --tw-ordinal: ; --tw-slashed-zero: ; --tw-numeric-figure: ; --tw-numeric-spacing: ; --tw-numeric-fraction: ; --tw-ring-inset: ; --tw-ring-offset-width: 0px; --tw-ring-offset-color: #fff; --tw-ring-color: rgb(59 130 246 / .5); --tw-ring-offset-shadow: 0 0 #0000; --tw-ring-shadow: 0 0 #0000; --tw-shadow: 0 0 #0000; --tw-shadow-colored: 0 0 #0000; --tw-blur: ; --tw-brightness: ; --tw-contrast: ; --tw-grayscale: ; --tw-hue-rotate: ; --tw-invert: ; --tw-saturate: ; --tw-sepia: ; --tw-drop-shadow: ; --tw-backdrop-blur: ; --tw-backdrop-brightness: ; --tw-backdrop-contrast: ; --tw-backdrop-grayscale: ; --tw-backdrop-hue-rotate: ; --tw-backdrop-invert: ; --tw-backdrop-opacity: ; --tw-backdrop-saturate: ; --tw-backdrop-sepia: ; background-color: initial;&quot;&gt;src code&lt;/span&gt;&lt;/div&gt;" style="ellipse;whiteSpace=wrap;html=1;" parent="2fjG4QaXRf-Lk_SPFCAc-46" vertex="1">
          <mxGeometry x="116.5" y="215" width="79" height="55" as="geometry" />
        </mxCell>
        <mxCell id="2fjG4QaXRf-Lk_SPFCAc-27" value="&amp;lt;&amp;lt;extend&amp;gt;&amp;gt;" style="text;html=1;align=center;verticalAlign=middle;resizable=0;points=[];autosize=1;strokeColor=none;fillColor=none;" parent="2fjG4QaXRf-Lk_SPFCAc-46" vertex="1">
          <mxGeometry x="10" y="150" width="90" height="30" as="geometry" />
        </mxCell>
        <mxCell id="2fjG4QaXRf-Lk_SPFCAc-52" value="&amp;lt;&amp;lt;extend&amp;gt;&amp;gt;" style="text;html=1;align=center;verticalAlign=middle;resizable=0;points=[];autosize=1;strokeColor=none;fillColor=none;" parent="2fjG4QaXRf-Lk_SPFCAc-46" vertex="1">
          <mxGeometry x="10" y="205" width="90" height="30" as="geometry" />
        </mxCell>
        <mxCell id="2fjG4QaXRf-Lk_SPFCAc-53" value="&amp;lt;&amp;lt;extend&amp;gt;&amp;gt;" style="text;html=1;align=center;verticalAlign=middle;resizable=0;points=[];autosize=1;strokeColor=none;fillColor=none;" parent="2fjG4QaXRf-Lk_SPFCAc-46" vertex="1">
          <mxGeometry x="10" y="92" width="90" height="30" as="geometry" />
        </mxCell>
        <mxCell id="2fjG4QaXRf-Lk_SPFCAc-67" value="Tapo Component" style="ellipse;whiteSpace=wrap;html=1;" parent="2fjG4QaXRf-Lk_SPFCAc-46" vertex="1">
          <mxGeometry x="349" y="155" width="70" height="50" as="geometry" />
        </mxCell>
        <mxCell id="2fjG4QaXRf-Lk_SPFCAc-68" value="Sync Devices&lt;div&gt;on the APP&lt;/div&gt;" style="ellipse;whiteSpace=wrap;html=1;" parent="2fjG4QaXRf-Lk_SPFCAc-46" vertex="1">
          <mxGeometry x="501" y="150" width="80" height="60" as="geometry" />
        </mxCell>
        <mxCell id="2fjG4QaXRf-Lk_SPFCAc-69" value="" style="endArrow=open;endSize=12;dashed=1;html=1;rounded=0;entryX=0;entryY=0.5;entryDx=0;entryDy=0;" parent="2fjG4QaXRf-Lk_SPFCAc-46" source="2fjG4QaXRf-Lk_SPFCAc-67" target="2fjG4QaXRf-Lk_SPFCAc-68" edge="1">
          <mxGeometry width="160" relative="1" as="geometry">
            <mxPoint x="359" y="190" as="sourcePoint" />
            <mxPoint x="223" y="190" as="targetPoint" />
          </mxGeometry>
        </mxCell>
        <mxCell id="2fjG4QaXRf-Lk_SPFCAc-70" value="&amp;lt;&amp;lt;include&amp;gt;&amp;gt;" style="text;html=1;align=center;verticalAlign=middle;resizable=0;points=[];autosize=1;strokeColor=none;fillColor=none;" parent="2fjG4QaXRf-Lk_SPFCAc-46" vertex="1">
          <mxGeometry x="411" y="155" width="90" height="30" as="geometry" />
        </mxCell>
        <mxCell id="2fjG4QaXRf-Lk_SPFCAc-71" value="" style="endArrow=open;endSize=12;dashed=1;html=1;rounded=0;exitX=0;exitY=0.5;exitDx=0;exitDy=0;" parent="2fjG4QaXRf-Lk_SPFCAc-46" source="2fjG4QaXRf-Lk_SPFCAc-67" edge="1">
          <mxGeometry width="160" relative="1" as="geometry">
            <mxPoint x="359" y="265" as="sourcePoint" />
            <mxPoint x="191" y="180" as="targetPoint" />
          </mxGeometry>
        </mxCell>
        <mxCell id="2fjG4QaXRf-Lk_SPFCAc-72" value="&amp;lt;&amp;lt;extend&amp;gt;&amp;gt;" style="text;html=1;align=center;verticalAlign=middle;resizable=0;points=[];autosize=1;strokeColor=none;fillColor=none;" parent="2fjG4QaXRf-Lk_SPFCAc-46" vertex="1">
          <mxGeometry x="240" y="150" width="90" height="30" as="geometry" />
        </mxCell>
        <mxCell id="2fjG4QaXRf-Lk_SPFCAc-73" value="Matter Component" style="ellipse;whiteSpace=wrap;html=1;" parent="2fjG4QaXRf-Lk_SPFCAc-46" vertex="1">
          <mxGeometry x="353.5" y="220" width="70" height="50" as="geometry" />
        </mxCell>
        <mxCell id="2fjG4QaXRf-Lk_SPFCAc-74" value="Sync Devices&lt;div&gt;on the APP&lt;/div&gt;" style="ellipse;whiteSpace=wrap;html=1;" parent="2fjG4QaXRf-Lk_SPFCAc-46" vertex="1">
          <mxGeometry x="505.5" y="215" width="80" height="60" as="geometry" />
        </mxCell>
        <mxCell id="2fjG4QaXRf-Lk_SPFCAc-75" value="" style="endArrow=open;endSize=12;dashed=1;html=1;rounded=0;entryX=0;entryY=0.5;entryDx=0;entryDy=0;" parent="2fjG4QaXRf-Lk_SPFCAc-46" source="2fjG4QaXRf-Lk_SPFCAc-73" target="2fjG4QaXRf-Lk_SPFCAc-74" edge="1">
          <mxGeometry width="160" relative="1" as="geometry">
            <mxPoint x="363.5" y="255" as="sourcePoint" />
            <mxPoint x="227.5" y="255" as="targetPoint" />
          </mxGeometry>
        </mxCell>
        <mxCell id="2fjG4QaXRf-Lk_SPFCAc-76" value="&amp;lt;&amp;lt;include&amp;gt;&amp;gt;" style="text;html=1;align=center;verticalAlign=middle;resizable=0;points=[];autosize=1;strokeColor=none;fillColor=none;" parent="2fjG4QaXRf-Lk_SPFCAc-46" vertex="1">
          <mxGeometry x="415.5" y="220" width="90" height="30" as="geometry" />
        </mxCell>
        <mxCell id="2fjG4QaXRf-Lk_SPFCAc-77" value="" style="endArrow=open;endSize=12;dashed=1;html=1;rounded=0;exitX=0;exitY=0.5;exitDx=0;exitDy=0;" parent="2fjG4QaXRf-Lk_SPFCAc-46" source="2fjG4QaXRf-Lk_SPFCAc-73" edge="1">
          <mxGeometry width="160" relative="1" as="geometry">
            <mxPoint x="363.5" y="330" as="sourcePoint" />
            <mxPoint x="195.5" y="245" as="targetPoint" />
          </mxGeometry>
        </mxCell>
        <mxCell id="2fjG4QaXRf-Lk_SPFCAc-78" value="&amp;lt;&amp;lt;extend&amp;gt;&amp;gt;" style="text;html=1;align=center;verticalAlign=middle;resizable=0;points=[];autosize=1;strokeColor=none;fillColor=none;" parent="2fjG4QaXRf-Lk_SPFCAc-46" vertex="1">
          <mxGeometry x="244.5" y="215" width="90" height="30" as="geometry" />
        </mxCell>
        <mxCell id="2fjG4QaXRf-Lk_SPFCAc-48" value="" style="endArrow=open;endSize=12;dashed=1;html=1;rounded=0;exitX=1;exitY=0.5;exitDx=0;exitDy=0;entryX=0;entryY=0.5;entryDx=0;entryDy=0;" parent="1" source="2fjG4QaXRf-Lk_SPFCAc-35" target="2fjG4QaXRf-Lk_SPFCAc-47" edge="1">
          <mxGeometry width="160" relative="1" as="geometry">
            <mxPoint x="324" y="535" as="sourcePoint" />
            <mxPoint x="481" y="535" as="targetPoint" />
            <Array as="points">
              <mxPoint x="302" y="715" />
            </Array>
          </mxGeometry>
        </mxCell>
        <mxCell id="2fjG4QaXRf-Lk_SPFCAc-51" value="" style="endArrow=open;endSize=12;dashed=1;html=1;rounded=0;exitX=0;exitY=0.5;exitDx=0;exitDy=0;entryX=1;entryY=1;entryDx=0;entryDy=0;" parent="1" source="2fjG4QaXRf-Lk_SPFCAc-50" target="2fjG4QaXRf-Lk_SPFCAc-18" edge="1">
          <mxGeometry width="160" relative="1" as="geometry">
            <mxPoint x="481" y="595" as="sourcePoint" />
            <mxPoint x="324" y="535" as="targetPoint" />
            <Array as="points">
              <mxPoint x="390" y="648" />
            </Array>
          </mxGeometry>
        </mxCell>
        <mxCell id="2fjG4QaXRf-Lk_SPFCAc-54" value="" style="endArrow=open;endSize=12;dashed=1;html=1;rounded=0;exitX=0;exitY=0.5;exitDx=0;exitDy=0;entryX=1;entryY=0.5;entryDx=0;entryDy=0;" parent="1" source="2fjG4QaXRf-Lk_SPFCAc-29" target="2fjG4QaXRf-Lk_SPFCAc-18" edge="1">
          <mxGeometry width="160" relative="1" as="geometry">
            <mxPoint x="709" y="535" as="sourcePoint" />
            <mxPoint x="551" y="535" as="targetPoint" />
          </mxGeometry>
        </mxCell>
      </root>
    </mxGraphModel>
  </diagram>
</mxfile>
